<svg id="Layer_1" data-name="Layer 1" xmlns="http://www.w3.org/2000/svg" viewBox="0 0 133.989 68.953"><defs><style>.cls-1{fill:#2388c9;}.cls-2{fill:#11688e;}.cls-3,.cls-4{fill:#414042;}.cls-4{font-size:12px;font-family:Impact;letter-spacing:0.8em;}.cls-5{letter-spacing:0.787em;}</style></defs><path class="cls-1" d="M105.473,120.062c-.353-.009-.7-.018-1.05-.031a2.206,2.206,0,0,0,.253-.375c8.095-15.514,20.781-24.205,38.186-25.883a40.1,40.1,0,0,1,20.686,3.7c-12.583.074-24.838,1.1-35.163,9.358a42,42,0,0,0-10.517,12.743c-3.616.3-7.11.5-10.639.5C106.645,120.079,106.061,120.07,105.473,120.062Z" transform="translate(-78.026 -85.14)"/><path class="cls-2" d="M134.184,106.782a28.731,28.731,0,0,1,15.514-5.759c15.662-1.425,28.462,3.246,36.783,17.052a86.71,86.71,0,0,0-16.3-2.753C160.263,105.576,148.365,103,134.184,106.782Z" transform="translate(-78.026 -85.14)"/><path class="cls-3" d="M209.384,134.02c-2.527-.91-5.036-1.873-7.589-2.7-12.966-4.178-26.214-6.54-39.864-5.381-9.031.771-18.032,1.969-27.033,3.085-11.889,1.472-23.731,1.7-35.524-.815-.632-.135-1.264-.266-1.895-.4a4.831,4.831,0,0,0,2.217,1.473c9.519,3.72,19.492,4.74,29.538,4.077s20.072-2,30.083-3.215c12.626-1.538,25.186-1.651,37.651,1.246,4.3,1,8.56,2.118,13.457,3.337A8.911,8.911,0,0,0,209.384,134.02Z" transform="translate(-78.026 -85.14)"/><path class="cls-3" d="M209.384,134.02c-2.527-.91-5.036-1.873-7.589-2.7-12.966-4.178-26.214-6.54-39.864-5.381-9.031.771-18.032,1.969-27.033,3.085-11.889,1.472-23.731,1.7-35.524-.815-.632-.135-1.264-.266-1.895-.4a4.831,4.831,0,0,0,2.217,1.473c9.519,3.72,19.492,4.74,29.538,4.077s20.072-2,30.083-3.215c12.626-1.538,25.186-1.651,37.651,1.246,4.3,1,8.56,2.118,13.457,3.337A8.911,8.911,0,0,0,209.384,134.02Z" transform="translate(-78.026 -85.14)"/><path class="cls-3" d="M212.015,132.639c-1.529-.553-3.067-1.076-4.583-1.673a106.2,106.2,0,0,0-31.564-7.262q-8.371.2-16.729.257c-4.231.37-8.457.875-12.683,1.246-9.963.875-19.91,2.457-29.882,2.631-11.327.2-22.467-1.729-32.17-8.312-2.339-1.586-4.265-3.782-6.378-5.7.183-.235.37-.466.553-.7,7.315,5.289,15.615,7.559,24.3,8.064q1.28.078,2.574.1a124.193,124.193,0,0,0,13.092-.535c2.287-.2,4.57-.423,6.844-.658,10.744-1.111,21.418-3.176,32.179-3.69a101.862,101.862,0,0,1,13.915.248,84.327,84.327,0,0,1,15.88,2.919q3.216.921,6.352,2.13,1.536.588,3.058,1.255a75.99,75.99,0,0,1,14.282,8.173A2.328,2.328,0,0,1,212.015,132.639Z" transform="translate(-78.026 -85.14)"/><path class="cls-3" d="M209.384,134.02a8.911,8.911,0,0,1,1.041.71c-4.9-1.219-9.162-2.339-13.457-3.337-12.465-2.9-25.025-2.784-37.651-1.246-10.011,1.22-20.027,2.553-30.083,3.215s-20.019-.357-29.538-4.077a4.831,4.831,0,0,1-2.217-1.473c.631.135,1.263.266,1.895.4,11.793,2.514,23.635,2.287,35.524.815,9-1.116,18-2.314,27.033-3.085,13.65-1.159,26.9,1.2,39.864,5.381C204.348,132.147,206.857,133.11,209.384,134.02Z" transform="translate(-78.026 -85.14)"/><path class="cls-3" d="M210.425,134.73c-4.9-1.219-9.162-2.339-13.457-3.337-12.465-2.9-25.025-2.784-37.651-1.246-10.011,1.22-20.027,2.553-30.083,3.215s-20.019-.357-29.538-4.077a4.831,4.831,0,0,1-2.217-1.473c.631.135,1.263.266,1.895.4,11.793,2.514,23.635,2.287,35.524.815,9-1.116,18-2.314,27.033-3.085,13.65-1.159,26.9,1.2,39.864,5.381,2.553.823,5.062,1.786,7.589,2.7A8.911,8.911,0,0,1,210.425,134.73Z" transform="translate(-78.026 -85.14)"/><circle class="cls-1" cx="53.275" cy="4.229" r="4.229"/><circle class="cls-2" cx="93.32" cy="11.408" r="4.229"/><text class="cls-4" transform="translate(39.871 64.987)">S<tspan class="cls-5" x="15.805" y="0">E</tspan><tspan x="30.233" y="0">TU</tspan></text></svg>